HIERARCHY
ROOT Hips
{
  OFFSET 0.0000 0.0000 0.0000
  CHANNELS 6 Xposition Yposition Zposition Zrotation Xrotation Yrotation
  JOINT Chest
  {
    OFFSET -0.1728 10.2870 0.1254
    CHANNELS 3 Zrotation Xrotation Yrotation
    JOINT Chest2
    {
      OFFSET 0.3229 15.8173 -2.6440
      CHANNELS 3 Zrotation Xrotation Yrotation
      JOINT LeftCollar
      {
        OFFSET -0.0683 16.8828 0.2989
        CHANNELS 3 Zrotation Xrotation Yrotation
        JOINT LeftShoulder
        {
          OFFSET 16.0110 -3.0750 2.0528
          CHANNELS 3 Zrotation Xrotation Yrotation
          JOINT LeftElbow
          {
            OFFSET 2.6153 -25.4187 1.7231
            CHANNELS 3 Zrotation Xrotation Yrotation
            JOINT LeftWrist
            {
              OFFSET 2.3595 -22.4741 1.0488
              CHANNELS 3 Zrotation Xrotation Yrotation
              End Site
              {
                  OFFSET 2.3165 -14.1216 1.0401
              }
            }
          }
        }
      }
      JOINT RightCollar
      {
        OFFSET -0.0683 16.8828 0.2989
        CHANNELS 3 Zrotation Xrotation Yrotation
        JOINT RightShoulder
        {
          OFFSET -16.3743 -2.4390 2.0841
          CHANNELS 3 Zrotation Xrotation Yrotation
          JOINT RightElbow
          {
            OFFSET -2.6865 -25.0857 1.2959
            CHANNELS 3 Zrotation Xrotation Yrotation
            JOINT RightWrist
            {
              OFFSET -2.3810 -22.8348 1.0329
              CHANNELS 3 Zrotation Xrotation Yrotation
              End Site
              {
                  OFFSET -2.1496 -14.9085 1.5341
              }
            }
          }
        }
      }
      JOINT Neck
      {
        OFFSET -0.0683 16.8828 0.2989
        CHANNELS 3 Zrotation Xrotation Yrotation
        JOINT Head
        {
          OFFSET 0.1300 11.4121 4.7143
          CHANNELS 3 Zrotation Xrotation Yrotation
          End Site
          {
              OFFSET 0.1781 18.0293 1.1743
          }
        }
      }
    }
  }
  JOINT LeftHip
  {
    OFFSET 9.3186 -0.0408 3.5432
    CHANNELS 3 Zrotation Xrotation Yrotation
    JOINT LeftKnee
    {
      OFFSET -0.5435 -48.8357 0.3144
      CHANNELS 3 Zrotation Xrotation Yrotation
      JOINT LeftAnkle
      {
        OFFSET 0.2027 -38.4920 -4.2946
        CHANNELS 3 Zrotation Xrotation Yrotation
        End Site
        {
            OFFSET 1.5867 -7.4572 18.5535
        }
      }
    }
  }
  JOINT RightHip
  {
    OFFSET -10.0712 -0.0749 3.1483
    CHANNELS 3 Zrotation Xrotation Yrotation
    JOINT RightKnee
    {
      OFFSET 0.3157 -48.5179 0.1055
      CHANNELS 3 Zrotation Xrotation Yrotation
      JOINT RightAnkle
      {
        OFFSET -1.1248 -38.4399 -3.4305
        CHANNELS 3 Zrotation Xrotation Yrotation
        End Site
        {
            OFFSET -1.0585 -7.3826 18.1840
        }
      }
    }
  }
}
MOTION
Frames:	32
Frame Time:	0.033333
-26.8006 96.6776 232.3492 -12.76 -0.71 -85.03 1.03 16.60 -0.79 1.05 16.58 -0.77 -0.18 -0.70 0.26 19.37 -16.10 -60.34 9.33 -21.58 -2.23 -5.47 -1.24 -6.93 -0.01 -0.80 0.01 -20.53 -16.67 69.21 -13.89 -14.43 3.32 0.26 -2.17 -8.79 0.00 -14.14 4.44 -0.35 -6.84 4.38 1.48 12.62 -12.71 0.11 -0.12 -0.02 -0.20 -0.10 0.83 2.19 12.25 -2.57 0.13 2.95 -0.07 0.07 -2.45 -0.29 
-26.8050 96.6724 232.3078 -12.77 -0.74 -84.98 1.02 16.60 -0.84 1.04 16.58 -0.82 -0.18 -0.70 0.26 19.29 -16.08 -60.02 9.34 -21.45 -2.23 -5.69 -1.52 -7.61 -0.01 -0.80 0.01 -20.54 -16.69 69.19 -13.89 -14.26 3.32 0.62 -2.77 -8.11 0.04 -14.15 4.50 -0.32 -6.85 4.44 1.50 12.63 -12.83 0.11 -0.12 -0.00 -0.23 -0.11 0.82 2.27 12.02 -2.37 0.14 3.23 -0.15 -0.67 -2.40 -0.33 
-26.8081 96.6699 232.2665 -12.77 -0.75 -84.97 1.02 16.60 -0.85 1.04 16.57 -0.83 -0.18 -0.70 0.26 19.27 -16.08 -59.93 9.34 -21.47 -2.23 -5.82 -1.48 -8.04 -0.01 -0.80 0.01 -20.58 -16.66 69.19 -13.89 -14.24 3.32 0.69 -2.94 -7.73 0.04 -14.15 4.52 -0.32 -6.85 4.46 1.50 12.63 -12.85 0.11 -0.12 -0.00 -0.24 -0.11 0.82 2.27 11.95 -2.15 0.21 3.34 -0.24 -0.89 -2.41 -0.43 
-26.8108 96.6678 232.2244 -12.77 -0.75 -84.97 1.02 16.60 -0.85 1.04 16.57 -0.83 -0.18 -0.70 0.26 19.28 -16.09 -60.05 9.33 -21.58 -2.23 -5.88 -1.25 -8.10 -0.01 -0.80 0.01 -20.63 -16.61 69.19 -13.89 -14.24 3.32 0.64 -2.89 -7.59 0.01 -14.16 4.57 -0.35 -6.86 4.51 1.51 12.62 -12.84 0.11 -0.11 -0.00 -0.25 -0.12 0.82 2.26 11.90 -1.93 0.28 3.42 -0.33 -0.89 -2.47 -0.56 
-26.8136 96.6648 232.1817 -12.76 -0.76 -84.98 1.01 16.60 -0.85 1.04 16.57 -0.83 -0.18 -0.70 0.26 19.33 -16.13 -60.29 9.33 -21.72 -2.24 -5.94 -0.95 -7.72 -0.01 -0.80 0.01 -20.69 -16.55 69.21 -13.89 -14.25 3.32 0.56 -2.75 -7.62 -0.02 -14.16 4.65 -0.40 -6.86 4.58 1.51 12.60 -12.79 0.12 -0.11 -0.00 -0.27 -0.12 0.82 2.24 11.84 -1.71 0.34 3.54 -0.42 -0.90 -2.54 -0.68 
-26.8175 96.6605 232.1395 -12.75 -0.77 -84.99 1.01 16.59 -0.86 1.04 16.56 -0.84 -0.18 -0.70 0.26 19.38 -16.17 -60.56 9.33 -21.87 -2.25 -5.98 -0.66 -6.94 -0.01 -0.80 0.01 -20.76 -16.50 69.23 -13.89 -14.26 3.32 0.54 -2.63 -7.72 -0.07 -14.16 4.75 -0.46 -6.87 4.68 1.51 12.57 -12.73 0.12 -0.10 -0.01 -0.29 -0.13 0.81 2.23 11.76 -1.49 0.39 3.67 -0.51 -0.93 -2.63 -0.80 
-26.8235 96.6556 232.1003 -12.73 -0.79 -85.00 1.01 16.58 -0.87 1.04 16.55 -0.85 -0.18 -0.70 0.26 19.43 -16.21 -60.83 9.32 -22.01 -2.25 -6.00 -0.43 -5.87 -0.01 -0.80 0.01 -20.82 -16.45 69.25 -13.89 -14.27 3.32 0.55 -2.53 -7.83 -0.13 -14.17 4.87 -0.53 -6.88 4.80 1.51 12.55 -12.69 0.12 -0.09 -0.01 -0.31 -0.13 0.79 2.23 11.66 -1.27 0.43 3.84 -0.60 -0.98 -2.72 -0.90 
-26.8325 96.6512 232.0673 -12.71 -0.80 -85.03 1.01 16.57 -0.87 1.04 16.54 -0.85 -0.18 -0.70 0.26 19.48 -16.26 -61.08 9.32 -22.14 -2.26 -5.98 -0.29 -4.81 -0.01 -0.80 0.01 -20.89 -16.41 69.24 -13.89 -14.27 3.32 0.60 -2.48 -7.88 -0.18 -14.18 5.01 -0.60 -6.88 4.94 1.52 12.54 -12.64 0.12 -0.09 -0.01 -0.34 -0.14 0.77 2.21 11.58 -1.06 0.47 3.98 -0.68 -1.03 -2.80 -1.01 
-26.8443 96.6479 232.0424 -12.68 -0.82 -85.06 1.01 16.55 -0.88 1.04 16.52 -0.86 -0.18 -0.70 0.26 19.52 -16.30 -61.31 9.32 -22.23 -2.26 -5.94 -0.23 -4.04 -0.01 -0.80 0.01 -20.94 -16.37 69.21 -13.89 -14.26 3.32 0.67 -2.46 -7.87 -0.24 -14.19 5.15 -0.68 -6.89 5.08 1.52 12.53 -12.59 0.12 -0.09 -0.02 -0.36 -0.15 0.74 2.20 11.50 -0.84 0.51 4.12 -0.77 -1.07 -2.88 -1.11 
-26.8573 96.6459 232.0259 -12.65 -0.84 -85.10 1.01 16.52 -0.88 1.04 16.49 -0.86 -0.18 -0.70 0.26 19.56 -16.33 -61.49 9.31 -22.27 -2.26 -5.90 -0.24 -3.77 -0.01 -0.80 0.01 -20.98 -16.35 69.13 -13.89 -14.22 3.32 0.78 -2.47 -7.75 -0.29 -14.20 5.27 -0.74 -6.91 5.20 1.52 12.53 -12.55 0.12 -0.11 -0.02 -0.39 -0.16 0.72 2.19 11.45 -0.62 0.55 4.21 -0.85 -1.11 -2.94 -1.22 
-26.8687 96.6447 232.0158 -12.63 -0.85 -85.14 1.02 16.49 -0.87 1.04 16.47 -0.85 -0.18 -0.70 0.26 19.59 -16.36 -61.64 9.31 -22.31 -2.27 -5.85 -0.24 -4.05 -0.01 -0.80 0.01 -21.01 -16.33 69.04 -13.90 -14.18 3.32 0.88 -2.49 -7.63 -0.32 -14.21 5.36 -0.78 -6.91 5.28 1.52 12.54 -12.50 0.11 -0.13 -0.02 -0.40 -0.17 0.69 2.17 11.39 -0.40 0.59 4.31 -0.94 -1.14 -3.00 -1.32 
-26.8768 96.6437 232.0098 -12.61 -0.86 -85.18 1.02 16.47 -0.85 1.05 16.44 -0.83 -0.18 -0.70 0.26 19.61 -16.39 -61.75 9.31 -22.34 -2.27 -5.83 -0.27 -4.67 -0.01 -0.80 0.01 -21.02 -16.33 68.98 -13.90 -14.13 3.32 0.95 -2.51 -7.52 -0.34 -14.21 5.40 -0.80 -6.92 5.32 1.52 12.54 -12.46 0.11 -0.16 -0.02 -0.41 -0.17 0.67 2.15 11.33 -0.18 0.63 4.40 -1.02 -1.17 -3.05 -1.43 
-26.8825 96.6425 232.0061 -12.59 -0.87 -85.22 1.03 16.44 -0.83 1.05 16.42 -0.81 -0.18 -0.70 0.26 19.62 -16.40 -61.80 9.31 -22.36 -2.27 -5.84 -0.22 -5.40 -0.01 -0.80 0.01 -21.03 -16.33 68.94 -13.90 -14.09 3.32 0.98 -2.51 -7.50 -0.35 -14.23 5.43 -0.82 -6.94 5.35 1.52 12.55 -12.43 0.11 -0.20 -0.01 -0.42 -0.16 0.66 2.13 11.25 0.04 0.66 4.51 -1.11 -1.20 -3.11 -1.54 
-26.8896 96.6411 232.0045 -12.56 -0.88 -85.24 1.03 16.42 -0.81 1.06 16.39 -0.79 -0.18 -0.70 0.26 19.63 -16.41 -61.85 9.31 -22.35 -2.27 -5.84 -0.18 -5.94 -0.01 -0.80 0.01 -21.03 -16.34 68.94 -13.90 -14.06 3.32 0.99 -2.49 -7.55 -0.38 -14.27 5.42 -0.85 -6.98 5.33 1.51 12.55 -12.40 0.10 -0.24 -0.01 -0.42 -0.15 0.64 2.11 11.19 0.25 0.69 4.60 -1.20 -1.22 -3.18 -1.66 
-26.9028 96.6398 232.0060 -12.53 -0.90 -85.26 1.04 16.41 -0.80 1.07 16.38 -0.78 -0.18 -0.70 0.26 19.65 -16.40 -61.86 9.31 -22.33 -2.27 -5.84 -0.09 -6.27 -0.01 -0.80 0.01 -21.02 -16.36 69.02 -13.90 -14.04 3.32 0.94 -2.48 -7.66 -0.39 -14.31 5.35 -0.85 -7.02 5.27 1.50 12.55 -12.39 0.10 -0.28 -0.01 -0.43 -0.14 0.63 2.08 11.12 0.47 0.72 4.70 -1.29 -1.23 -3.24 -1.79 
-26.9261 96.6394 232.0120 -12.49 -0.92 -85.26 1.04 16.39 -0.79 1.07 16.37 -0.77 -0.18 -0.70 0.26 19.70 -16.38 -61.82 9.31 -22.29 -2.26 -5.85 -0.04 -6.26 -0.01 -0.80 0.01 -21.02 -16.37 69.06 -13.90 -14.03 3.32 0.88 -2.47 -7.78 -0.39 -14.34 5.25 -0.84 -7.05 5.17 1.49 12.54 -12.38 0.09 -0.33 -0.01 -0.43 -0.12 0.63 2.05 11.09 0.68 0.76 4.75 -1.39 -1.25 -3.30 -1.93 
-26.9604 96.6402 232.0238 -12.45 -0.94 -85.26 1.04 16.38 -0.79 1.07 16.35 -0.77 -0.18 -0.70 0.26 19.73 -16.35 -61.74 9.32 -22.25 -2.26 -5.88 0.03 -6.15 -0.01 -0.80 0.01 -21.01 -16.37 69.13 -13.90 -14.04 3.32 0.80 -2.50 -7.92 -0.38 -14.36 5.10 -0.82 -7.06 5.03 1.48 12.54 -12.38 0.09 -0.41 -0.01 -0.43 -0.12 0.62 2.03 11.07 0.90 0.81 4.78 -1.48 -1.28 -3.33 -2.06 
-27.0042 96.6422 232.0412 -12.42 -0.96 -85.25 1.04 16.37 -0.79 1.07 16.34 -0.77 -0.18 -0.70 0.26 19.76 -16.33 -61.63 9.32 -22.20 -2.26 -5.94 0.06 -5.90 -0.01 -0.80 0.01 -21.01 -16.37 69.16 -13.90 -14.06 3.32 0.72 -2.55 -8.03 -0.37 -14.36 4.93 -0.78 -7.07 4.86 1.47 12.59 -12.38 0.08 -0.49 -0.02 -0.42 -0.11 0.61 2.01 11.10 1.11 0.87 4.75 -1.58 -1.31 -3.34 -2.19 
-27.0538 96.6446 232.0631 -12.41 -0.97 -85.23 1.03 16.35 -0.79 1.06 16.32 -0.77 -0.18 -0.70 0.26 19.76 -16.32 -61.52 9.32 -22.17 -2.26 -6.01 0.12 -5.74 -0.01 -0.80 0.01 -21.00 -16.37 69.18 -13.90 -14.10 3.32 0.64 -2.62 -8.16 -0.35 -14.36 4.76 -0.74 -7.06 4.70 1.47 12.68 -12.38 0.08 -0.57 -0.02 -0.41 -0.10 0.60 1.98 11.18 1.33 0.94 4.67 -1.67 -1.34 -3.32 -2.31 
-27.1053 96.6463 232.0865 -12.46 -0.96 -85.19 1.02 16.34 -0.77 1.05 16.31 -0.75 -0.18 -0.70 0.26 19.75 -16.33 -61.42 9.32 -22.14 -2.26 -6.08 0.17 -5.60 -0.01 -0.80 0.01 -21.00 -16.37 69.12 -13.90 -14.14 3.32 0.61 -2.64 -8.15 -0.33 -14.35 4.60 -0.70 -7.05 4.54 1.48 12.81 -12.38 0.08 -0.65 -0.02 -0.40 -0.09 0.58 1.96 11.34 1.54 1.03 4.51 -1.77 -1.38 -3.28 -2.44 
-27.1549 96.6467 232.1082 -12.54 -0.94 -85.16 1.01 16.33 -0.74 1.04 16.30 -0.72 -0.18 -0.70 0.26 19.75 -16.34 -61.37 9.32 -22.12 -2.26 -6.15 0.26 -5.66 -0.01 -0.80 0.01 -21.01 -16.39 69.02 -13.90 -14.18 3.32 0.63 -2.64 -8.05 -0.31 -14.34 4.46 -0.67 -7.04 4.40 1.50 12.95 -12.38 0.08 -0.70 -0.02 -0.38 -0.07 0.56 1.94 11.52 1.75 1.13 4.35 -1.88 -1.43 -3.22 -2.57 
-27.2002 96.6462 232.1254 -12.63 -0.93 -85.14 1.00 16.34 -0.69 1.03 16.31 -0.67 -0.18 -0.70 0.26 19.74 -16.37 -61.33 9.32 -22.11 -2.26 -6.21 0.33 -5.83 -0.01 -0.80 0.01 -21.00 -16.42 68.88 -13.89 -14.22 3.32 0.74 -2.53 -7.73 -0.29 -14.32 4.34 -0.63 -7.02 4.28 1.53 13.09 -12.39 0.08 -0.75 -0.03 -0.36 -0.06 0.54 1.92 11.72 1.96 1.23 4.15 -1.98 -1.48 -3.16 -2.71 
-27.2400 96.6457 232.1371 -12.71 -0.91 -85.12 1.00 16.35 -0.64 1.02 16.32 -0.62 -0.18 -0.70 0.26 19.75 -16.40 -61.31 9.32 -22.11 -2.26 -6.24 0.37 -6.17 -0.01 -0.80 0.01 -20.99 -16.46 68.74 -13.89 -14.26 3.32 0.85 -2.41 -7.42 -0.27 -14.30 4.24 -0.59 -6.99 4.19 1.55 13.22 -12.41 0.08 -0.79 -0.03 -0.34 -0.05 0.53 1.91 11.89 2.16 1.32 3.99 -2.09 -1.53 -3.10 -2.83 
-27.2751 96.6458 232.1440 -12.78 -0.90 -85.08 1.00 16.37 -0.59 1.02 16.35 -0.57 -0.18 -0.70 0.26 19.76 -16.44 -61.30 9.32 -22.09 -2.26 -6.21 0.26 -6.47 -0.01 -0.80 0.01 -20.97 -16.51 68.59 -13.89 -14.28 3.32 0.97 -2.27 -7.09 -0.24 -14.26 4.15 -0.55 -6.96 4.10 1.58 13.33 -12.46 0.08 -0.83 -0.03 -0.33 -0.04 0.52 1.90 12.05 2.37 1.41 3.83 -2.19 -1.57 -3.03 -2.97 
-27.3084 96.6463 232.1485 -12.84 -0.90 -85.02 0.99 16.39 -0.55 1.02 16.37 -0.53 -0.18 -0.70 0.26 19.81 -16.46 -61.22 9.32 -22.00 -2.25 -6.16 0.05 -6.79 -0.01 -0.80 0.01 -20.94 -16.55 68.45 -13.89 -14.30 3.32 1.04 -2.19 -6.99 -0.21 -14.21 4.07 -0.51 -6.91 4.02 1.60 13.42 -12.53 0.08 -0.87 -0.03 -0.32 -0.04 0.52 1.89 12.19 2.57 1.49 3.69 -2.30 -1.62 -2.98 -3.10 
-27.3441 96.6464 232.1530 -12.89 -0.90 -84.96 0.99 16.42 -0.52 1.02 16.39 -0.50 -0.18 -0.70 0.26 19.85 -16.41 -61.05 9.33 -21.89 -2.25 -6.08 -0.35 -7.02 -0.01 -0.80 0.01 -20.91 -16.60 68.32 -13.89 -14.34 3.32 1.02 -2.15 -7.11 -0.18 -14.15 4.00 -0.48 -6.84 3.95 1.62 13.50 -12.61 0.09 -0.91 -0.03 -0.31 -0.04 0.53 1.88 12.34 2.78 1.57 3.53 -2.41 -1.67 -2.92 -3.26 
-27.3867 96.6457 232.1589 -12.95 -0.89 -84.89 0.98 16.43 -0.49 1.01 16.40 -0.47 -0.18 -0.70 0.26 19.86 -16.32 -60.80 9.33 -21.76 -2.24 -6.00 -0.76 -7.25 -0.01 -0.80 0.01 -20.88 -16.64 68.20 -13.89 -14.37 3.32 0.93 -2.18 -7.46 -0.16 -14.07 3.94 -0.45 -6.77 3.89 1.64 13.59 -12.70 0.09 -0.94 -0.03 -0.30 -0.05 0.54 1.87 12.51 2.98 1.64 3.37 -2.53 -1.72 -2.88 -3.41 
-27.4384 96.6439 232.1657 -13.01 -0.89 -84.84 0.97 16.44 -0.46 0.99 16.41 -0.44 -0.18 -0.70 0.26 19.85 -16.21 -60.55 9.33 -21.64 -2.24 -5.95 -1.19 -7.43 -0.01 -0.80 0.01 -20.85 -16.68 68.09 -13.89 -14.42 3.32 0.81 -2.22 -7.82 -0.15 -13.99 3.89 -0.43 -6.69 3.85 1.66 13.68 -12.78 0.09 -0.96 -0.03 -0.29 -0.05 0.55 1.87 12.69 3.18 1.72 3.18 -2.64 -1.77 -2.83 -3.57 
-27.4989 96.6415 232.1717 -13.08 -0.88 -84.80 0.95 16.44 -0.45 0.97 16.42 -0.43 -0.18 -0.70 0.26 19.83 -16.12 -60.33 9.34 -21.53 -2.23 -5.97 -1.52 -7.50 -0.01 -0.80 0.01 -20.82 -16.71 67.97 -13.88 -14.47 3.32 0.69 -2.24 -8.02 -0.15 -13.91 3.86 -0.43 -6.60 3.81 1.69 13.79 -12.85 0.09 -0.98 -0.03 -0.28 -0.07 0.57 1.87 12.88 3.38 1.79 3.00 -2.75 -1.82 -2.76 -3.69 
-27.5652 96.6392 232.1740 -13.16 -0.85 -84.80 0.92 16.44 -0.44 0.95 16.41 -0.42 -0.18 -0.70 0.26 19.79 -16.04 -60.16 9.34 -21.44 -2.23 -6.09 -1.77 -7.30 -0.01 -0.80 0.01 -20.80 -16.73 67.86 -13.88 -14.51 3.32 0.59 -2.20 -7.98 -0.15 -13.82 3.84 -0.43 -6.52 3.80 1.73 13.91 -12.89 0.09 -1.00 -0.03 -0.27 -0.11 0.63 1.87 13.08 3.58 1.87 2.79 -2.85 -1.87 -2.69 -3.80 
-27.6338 96.6378 232.1701 -13.23 -0.82 -84.82 0.90 16.43 -0.43 0.92 16.41 -0.41 -0.18 -0.70 0.26 19.76 -15.96 -60.09 9.34 -21.36 -2.23 -6.30 -1.92 -6.77 -0.01 -0.80 0.01 -20.78 -16.74 67.75 -13.88 -14.55 3.32 0.53 -2.11 -7.67 -0.16 -13.73 3.85 -0.43 -6.43 3.81 1.78 14.04 -12.91 0.09 -1.01 -0.03 -0.26 -0.15 0.70 1.88 13.28 3.79 1.95 2.55 -2.93 -1.93 -2.59 -3.87 
-27.7026 96.6377 232.1573 -13.31 -0.77 -84.87 0.88 16.43 -0.44 0.90 16.40 -0.42 -0.18 -0.70 0.26 19.75 -15.88 -60.10 9.34 -21.28 -2.22 -6.55 -2.03 -5.95 -0.01 -0.80 0.01 -20.76 -16.75 67.71 -13.88 -14.59 3.32 0.48 -2.02 -7.31 -0.16 -13.63 3.88 -0.44 -6.33 3.84 1.83 14.17 -12.90 0.09 -1.04 -0.04 -0.26 -0.18 0.78 1.90 13.48 3.99 2.02 2.29 -3.02 -2.00 -2.47 -3.91 
